<?xml version="1.0" standalone="no"?>
<!DOCTYPE svg PUBLIC "-//W3C//DTD SVG 20010904//EN"
 "http://www.w3.org/TR/2001/REC-SVG-20010904/DTD/svg10.dtd">
<svg version="1.0" xmlns="http://www.w3.org/2000/svg"
 width="64.000000pt" height="65.000000pt" viewBox="0 0 64.000000 65.000000"
 preserveAspectRatio="xMidYMid meet">

<g transform="translate(0.000000,65.000000) scale(0.100000,-0.100000)"
fill="#000000" stroke="none">
<path d="M221 545 c-17 -20 -31 -38 -31 -40 0 -2 15 -1 34 2 18 3 42 0 54 -6
17 -9 19 -14 9 -35 -8 -17 -22 -26 -41 -28 -23 -2 -31 -9 -37 -30 -7 -26 5
-41 13 -17 5 14 88 24 88 10 0 -5 -7 -17 -16 -25 -8 -9 -17 -31 -19 -49 -3
-20 -15 -41 -35 -58 -35 -30 -38 -39 -11 -39 45 0 129 -103 99 -121 -23 -16
13 -30 57 -23 22 3 37 3 33 -1 -9 -9 14 -35 25 -28 4 3 14 0 21 -6 10 -8 22
-4 48 17 65 50 66 59 4 87 -30 14 -58 30 -61 36 -4 5 -18 14 -31 19 -34 13
-33 71 1 112 13 16 30 46 36 67 10 33 8 43 -12 86 -20 40 -34 54 -79 77 -76
38 -110 37 -149 -7z"/>
<path d="M192 358 c7 -19 38 -22 38 -4 0 10 -9 16 -21 16 -12 0 -19 -5 -17
-12z"/>
<path d="M225 320 c4 -6 11 -8 16 -5 14 9 11 15 -7 15 -8 0 -12 -5 -9 -10z"/>
<path d="M290 130 c0 -5 7 -10 16 -10 8 0 12 5 9 10 -3 6 -10 10 -16 10 -5 0
-9 -4 -9 -10z"/>
</g>
</svg>
